G75*
%MOIN*%
%OFA0B0*%
%FSLAX24Y24*%
%IPPOS*%
%LPD*%
%AMOC8*
5,1,8,0,0,1.08239X$1,22.5*
%
%ADD10C,0.0000*%
%ADD11C,0.0740*%
%ADD12C,0.0669*%
%ADD13C,0.2480*%
%ADD14C,0.0320*%
%ADD15C,0.0100*%
%ADD16C,0.1122*%
%ADD17C,0.0160*%
D10*
X000100Y000100D02*
X000100Y005691D01*
X000946Y005691D01*
X000946Y005690D02*
X001022Y005692D01*
X001098Y005698D01*
X001174Y005708D01*
X001249Y005722D01*
X001323Y005740D01*
X001396Y005761D01*
X001468Y005787D01*
X001539Y005816D01*
X001607Y005849D01*
X001675Y005885D01*
X001740Y005925D01*
X001802Y005968D01*
X001863Y006015D01*
X001921Y006064D01*
X001976Y006117D01*
X002029Y006172D01*
X002078Y006230D01*
X002125Y006291D01*
X002168Y006353D01*
X002208Y006419D01*
X002244Y006486D01*
X002277Y006554D01*
X002306Y006625D01*
X002332Y006697D01*
X002353Y006770D01*
X002371Y006844D01*
X002385Y006919D01*
X002395Y006995D01*
X002401Y007071D01*
X002403Y007147D01*
X002401Y007223D01*
X002395Y007299D01*
X002385Y007375D01*
X002371Y007450D01*
X002353Y007524D01*
X002332Y007597D01*
X002306Y007669D01*
X002277Y007740D01*
X002244Y007808D01*
X002208Y007876D01*
X002168Y007941D01*
X002125Y008003D01*
X002078Y008064D01*
X002029Y008122D01*
X001976Y008177D01*
X001921Y008230D01*
X001863Y008279D01*
X001802Y008326D01*
X001740Y008369D01*
X001674Y008409D01*
X001607Y008445D01*
X001539Y008478D01*
X001468Y008507D01*
X001396Y008533D01*
X001323Y008554D01*
X001249Y008572D01*
X001174Y008586D01*
X001098Y008596D01*
X001022Y008602D01*
X000946Y008604D01*
X000100Y008604D01*
X000100Y009706D01*
X000828Y009706D01*
X000877Y009708D01*
X000927Y009714D01*
X000975Y009723D01*
X001023Y009737D01*
X001069Y009754D01*
X001114Y009775D01*
X001157Y009799D01*
X001198Y009826D01*
X001237Y009857D01*
X001273Y009891D01*
X001307Y009927D01*
X001338Y009966D01*
X001365Y010007D01*
X001389Y010050D01*
X001410Y010095D01*
X001427Y010141D01*
X001441Y010189D01*
X001450Y010237D01*
X001456Y010287D01*
X001458Y010336D01*
X001456Y010385D01*
X001450Y010435D01*
X001441Y010483D01*
X001427Y010531D01*
X001410Y010577D01*
X001389Y010622D01*
X001365Y010665D01*
X001338Y010706D01*
X001307Y010745D01*
X001273Y010781D01*
X001237Y010815D01*
X001198Y010846D01*
X001157Y010873D01*
X001114Y010897D01*
X001069Y010918D01*
X001023Y010935D01*
X000975Y010949D01*
X000927Y010958D01*
X000877Y010964D01*
X000828Y010966D01*
X000100Y010966D01*
X000100Y011754D01*
X000533Y011950D01*
X000533Y014785D01*
X000100Y014982D01*
X000100Y017187D01*
X000102Y017154D01*
X000107Y017121D01*
X000117Y017090D01*
X000129Y017059D01*
X000145Y017030D01*
X000164Y017003D01*
X000186Y016978D01*
X000211Y016956D01*
X000238Y016937D01*
X000267Y016921D01*
X000298Y016909D01*
X000329Y016899D01*
X000362Y016894D01*
X000395Y016892D01*
X000428Y016894D01*
X000461Y016899D01*
X000492Y016909D01*
X000523Y016921D01*
X000552Y016937D01*
X000579Y016956D01*
X000604Y016978D01*
X000626Y017003D01*
X000645Y017030D01*
X000661Y017059D01*
X000673Y017090D01*
X000683Y017121D01*
X000688Y017154D01*
X000690Y017187D01*
X000691Y017187D02*
X000691Y017423D01*
X002265Y017423D01*
X002265Y017187D01*
X002266Y017187D02*
X002268Y017157D01*
X002273Y017128D01*
X002283Y017100D01*
X002295Y017073D01*
X002311Y017048D01*
X002330Y017025D01*
X002352Y017005D01*
X002376Y016988D01*
X002402Y016973D01*
X002429Y016963D01*
X002458Y016955D01*
X002487Y016951D01*
X002517Y016951D01*
X002546Y016955D01*
X002575Y016963D01*
X002602Y016973D01*
X002628Y016988D01*
X002652Y017005D01*
X002674Y017025D01*
X002693Y017048D01*
X002709Y017073D01*
X002721Y017100D01*
X002731Y017128D01*
X002736Y017157D01*
X002738Y017187D01*
X002738Y017423D01*
X005336Y017423D01*
X005336Y017187D01*
X005338Y017157D01*
X005343Y017128D01*
X005353Y017100D01*
X005365Y017073D01*
X005381Y017048D01*
X005400Y017025D01*
X005422Y017005D01*
X005446Y016988D01*
X005472Y016973D01*
X005499Y016963D01*
X005528Y016955D01*
X005557Y016951D01*
X005587Y016951D01*
X005616Y016955D01*
X005645Y016963D01*
X005672Y016973D01*
X005698Y016988D01*
X005722Y017005D01*
X005744Y017025D01*
X005763Y017048D01*
X005779Y017073D01*
X005791Y017100D01*
X005801Y017128D01*
X005806Y017157D01*
X005808Y017187D01*
X005809Y017187D02*
X005809Y017423D01*
X007383Y017423D01*
X007383Y017187D01*
X007384Y017187D02*
X007386Y017154D01*
X007391Y017121D01*
X007401Y017090D01*
X007413Y017059D01*
X007429Y017030D01*
X007448Y017003D01*
X007470Y016978D01*
X007495Y016956D01*
X007522Y016937D01*
X007551Y016921D01*
X007582Y016909D01*
X007613Y016899D01*
X007646Y016894D01*
X007679Y016892D01*
X007712Y016894D01*
X007745Y016899D01*
X007776Y016909D01*
X007807Y016921D01*
X007836Y016937D01*
X007863Y016956D01*
X007888Y016978D01*
X007910Y017003D01*
X007929Y017030D01*
X007945Y017059D01*
X007957Y017090D01*
X007967Y017121D01*
X007972Y017154D01*
X007974Y017187D01*
X007974Y014982D01*
X007541Y014785D01*
X007541Y011950D01*
X007974Y011754D01*
X007974Y010966D01*
X007246Y010966D01*
X007197Y010964D01*
X007147Y010958D01*
X007099Y010949D01*
X007051Y010935D01*
X007005Y010918D01*
X006960Y010897D01*
X006917Y010873D01*
X006876Y010846D01*
X006837Y010815D01*
X006801Y010781D01*
X006767Y010745D01*
X006736Y010706D01*
X006709Y010665D01*
X006685Y010622D01*
X006664Y010577D01*
X006647Y010531D01*
X006633Y010483D01*
X006624Y010435D01*
X006618Y010385D01*
X006616Y010336D01*
X006618Y010287D01*
X006624Y010237D01*
X006633Y010189D01*
X006647Y010141D01*
X006664Y010095D01*
X006685Y010050D01*
X006709Y010007D01*
X006736Y009966D01*
X006767Y009927D01*
X006801Y009891D01*
X006837Y009857D01*
X006876Y009826D01*
X006917Y009799D01*
X006960Y009775D01*
X007005Y009754D01*
X007051Y009737D01*
X007099Y009723D01*
X007147Y009714D01*
X007197Y009708D01*
X007246Y009706D01*
X007974Y009706D01*
X007974Y008604D01*
X007128Y008604D01*
X007052Y008602D01*
X006976Y008596D01*
X006900Y008586D01*
X006825Y008572D01*
X006751Y008554D01*
X006678Y008533D01*
X006606Y008507D01*
X006535Y008478D01*
X006467Y008445D01*
X006400Y008409D01*
X006334Y008369D01*
X006272Y008326D01*
X006211Y008279D01*
X006153Y008230D01*
X006098Y008177D01*
X006045Y008122D01*
X005996Y008064D01*
X005949Y008003D01*
X005906Y007941D01*
X005866Y007876D01*
X005830Y007808D01*
X005797Y007740D01*
X005768Y007669D01*
X005742Y007597D01*
X005721Y007524D01*
X005703Y007450D01*
X005689Y007375D01*
X005679Y007299D01*
X005673Y007223D01*
X005671Y007147D01*
X005673Y007071D01*
X005679Y006995D01*
X005689Y006919D01*
X005703Y006844D01*
X005721Y006770D01*
X005742Y006697D01*
X005768Y006625D01*
X005797Y006554D01*
X005830Y006486D01*
X005866Y006419D01*
X005906Y006353D01*
X005949Y006291D01*
X005996Y006230D01*
X006045Y006172D01*
X006098Y006117D01*
X006153Y006064D01*
X006211Y006015D01*
X006272Y005968D01*
X006334Y005925D01*
X006399Y005885D01*
X006467Y005849D01*
X006535Y005816D01*
X006606Y005787D01*
X006678Y005761D01*
X006751Y005740D01*
X006825Y005722D01*
X006900Y005708D01*
X006976Y005698D01*
X007052Y005692D01*
X007128Y005690D01*
X007128Y005691D02*
X007974Y005691D01*
X007974Y000100D01*
X005809Y000100D01*
X005612Y000376D01*
X004628Y000376D01*
X004431Y000218D01*
X003643Y000218D01*
X003446Y000376D01*
X002462Y000376D01*
X002265Y000100D01*
X000100Y000100D01*
D11*
X001037Y001006D03*
X001037Y002006D03*
X001037Y003006D03*
X001037Y004006D03*
X002462Y010521D03*
X003537Y012049D03*
X004037Y012799D03*
X004537Y012049D03*
X005612Y013521D03*
X005537Y014667D03*
X005537Y015824D03*
X004537Y015824D03*
X003537Y015824D03*
X002537Y015824D03*
X002537Y014667D03*
X002462Y013521D03*
X001537Y015824D03*
X005612Y010521D03*
X006537Y015824D03*
X007037Y005006D03*
X007037Y004006D03*
X007037Y003006D03*
X007037Y002006D03*
X007037Y001006D03*
D12*
X006600Y011600D03*
X006600Y014600D03*
X001600Y014600D03*
X001600Y011600D03*
D13*
X004037Y004057D03*
D14*
X004037Y000887D02*
X001155Y000887D01*
X001037Y001006D01*
X004037Y000887D02*
X004037Y007427D01*
X001797Y009667D01*
X001797Y011403D01*
X002443Y012049D01*
X003537Y012049D01*
X001797Y011403D02*
X001600Y011600D01*
D15*
X001650Y011625D02*
X003272Y011625D01*
X003276Y011622D02*
X003346Y011587D01*
X003420Y011562D01*
X003498Y011550D01*
X003507Y011550D01*
X003507Y012019D01*
X003038Y012019D01*
X003038Y012010D01*
X003051Y011932D01*
X003075Y011857D01*
X003110Y011787D01*
X003157Y011724D01*
X003212Y011668D01*
X003276Y011622D01*
X003157Y011723D02*
X002047Y011723D01*
X002052Y011709D02*
X002029Y011778D01*
X001996Y011843D01*
X001953Y011902D01*
X001902Y011953D01*
X001843Y011996D01*
X001778Y012029D01*
X001709Y012052D01*
X001650Y012061D01*
X001650Y011650D01*
X001550Y011650D01*
X001550Y012061D01*
X001491Y012052D01*
X001422Y012029D01*
X001357Y011996D01*
X001298Y011953D01*
X001247Y011902D01*
X001204Y011843D01*
X001171Y011778D01*
X001148Y011709D01*
X001140Y011658D01*
X000887Y011911D01*
X000887Y013092D01*
X001281Y013486D01*
X001922Y013486D01*
X001922Y013414D01*
X002004Y013215D01*
X002156Y013063D01*
X002355Y012981D01*
X002570Y012981D01*
X002768Y013063D01*
X002920Y013215D01*
X003002Y013414D01*
X003002Y013486D01*
X005072Y013486D01*
X005072Y013414D01*
X005154Y013215D01*
X005306Y013063D01*
X005504Y012981D01*
X005719Y012981D01*
X005918Y013063D01*
X006070Y013215D01*
X006152Y013414D01*
X006152Y013486D01*
X006793Y013486D01*
X007187Y013092D01*
X007187Y011517D01*
X007059Y011390D01*
X007105Y011500D01*
X007105Y011700D01*
X007028Y011886D01*
X006886Y012028D01*
X006700Y012105D01*
X006500Y012105D01*
X006314Y012028D01*
X006172Y011886D01*
X006095Y011700D01*
X006095Y011500D01*
X006172Y011314D01*
X006314Y011172D01*
X006500Y011095D01*
X006700Y011095D01*
X006810Y011141D01*
X006399Y010730D01*
X006399Y009549D01*
X005612Y008761D01*
X005612Y007744D01*
X005551Y007610D01*
X005484Y007147D01*
X005551Y006684D01*
X005612Y006550D01*
X005612Y006359D01*
X005468Y006503D01*
X005468Y009996D01*
X005504Y009981D01*
X005719Y009981D01*
X005918Y010063D01*
X006070Y010215D01*
X006152Y010414D01*
X006152Y010629D01*
X006070Y010827D01*
X005918Y010979D01*
X005719Y011061D01*
X005504Y011061D01*
X005306Y010979D01*
X005154Y010827D01*
X005072Y010629D01*
X005072Y010414D01*
X005095Y010358D01*
X005076Y010339D01*
X005006Y010269D01*
X004968Y010177D01*
X004968Y006349D01*
X005006Y006258D01*
X005612Y005652D01*
X005612Y005612D01*
X006006Y005218D01*
X006046Y005218D01*
X006400Y004864D01*
X006470Y004794D01*
X006555Y004759D01*
X006579Y004700D01*
X006731Y004548D01*
X006833Y004506D01*
X006731Y004463D01*
X006579Y004311D01*
X006497Y004113D01*
X006497Y003898D01*
X006579Y003700D01*
X006731Y003548D01*
X006833Y003506D01*
X006731Y003463D01*
X006579Y003311D01*
X006497Y003113D01*
X006497Y002898D01*
X006579Y002700D01*
X006731Y002548D01*
X006833Y002506D01*
X006731Y002463D01*
X006579Y002311D01*
X006497Y002113D01*
X006497Y001898D01*
X006579Y001700D01*
X006731Y001548D01*
X006833Y001506D01*
X006731Y001463D01*
X006579Y001311D01*
X006497Y001113D01*
X006497Y000898D01*
X006579Y000700D01*
X006731Y000548D01*
X006862Y000494D01*
X005736Y000494D01*
X006861Y000494D01*
X006686Y000593D02*
X004661Y000593D01*
X004657Y000582D02*
X004692Y000665D01*
X004715Y000753D01*
X004726Y000837D01*
X004087Y000837D01*
X004087Y000937D01*
X004726Y000937D01*
X004715Y001022D01*
X004692Y001110D01*
X004657Y001193D01*
X004612Y001271D01*
X004557Y001343D01*
X004493Y001407D01*
X004421Y001462D01*
X004343Y001507D01*
X004259Y001542D01*
X004172Y001565D01*
X004087Y001577D01*
X004087Y000937D01*
X003987Y000937D01*
X003987Y000837D01*
X003348Y000837D01*
X003359Y000753D01*
X003382Y000665D01*
X003417Y000582D01*
X003438Y000546D01*
X003437Y000546D01*
X002517Y000546D01*
X002504Y000555D01*
X002448Y000546D01*
X002392Y000546D01*
X002381Y000534D01*
X002365Y000532D01*
X002338Y000494D01*
X000887Y000494D01*
X000830Y000551D01*
X000846Y000543D01*
X000920Y000519D01*
X000987Y000508D01*
X000987Y000956D01*
X000540Y000956D01*
X000551Y000889D01*
X000575Y000814D01*
X000583Y000798D01*
X000494Y000887D01*
X000494Y004824D01*
X000887Y005218D01*
X001675Y005218D01*
X002462Y006006D01*
X002462Y006550D01*
X002523Y006684D01*
X002523Y006684D01*
X002590Y007147D01*
X002590Y007147D01*
X002523Y007610D01*
X002462Y007744D01*
X002462Y008761D01*
X001675Y009549D01*
X001675Y011124D01*
X001658Y011140D01*
X001709Y011148D01*
X001778Y011171D01*
X001843Y011204D01*
X001902Y011247D01*
X001953Y011298D01*
X001996Y011357D01*
X002029Y011422D01*
X002052Y011491D01*
X002061Y011550D01*
X001650Y011550D01*
X001650Y011650D01*
X002061Y011650D01*
X002052Y011709D01*
X002007Y011822D02*
X003093Y011822D01*
X003054Y011920D02*
X001935Y011920D01*
X001799Y012019D02*
X003038Y012019D01*
X003038Y012079D02*
X003507Y012079D01*
X003507Y012548D01*
X003498Y012548D01*
X003420Y012535D01*
X003346Y012511D01*
X000887Y012511D01*
X000887Y012413D02*
X003195Y012413D01*
X003212Y012429D02*
X003157Y012374D01*
X003110Y012310D01*
X003075Y012240D01*
X003051Y012166D01*
X003038Y012088D01*
X003038Y012079D01*
X003043Y012117D02*
X000887Y012117D01*
X000887Y012019D02*
X001401Y012019D01*
X001550Y012019D02*
X001650Y012019D01*
X001650Y011920D02*
X001550Y011920D01*
X001550Y011822D02*
X001650Y011822D01*
X001650Y011723D02*
X001550Y011723D01*
X001666Y011132D02*
X006411Y011132D01*
X006256Y011231D02*
X001880Y011231D01*
X001976Y011329D02*
X006166Y011329D01*
X006125Y011428D02*
X002031Y011428D01*
X002057Y011526D02*
X004388Y011526D01*
X004430Y011509D02*
X004644Y011509D01*
X004843Y011591D01*
X004995Y011743D01*
X005077Y011941D01*
X005077Y012156D01*
X004995Y012355D01*
X004843Y012507D01*
X004644Y012589D01*
X004535Y012589D01*
X004577Y012691D01*
X004577Y012906D01*
X004495Y013105D01*
X004343Y013257D01*
X004144Y013339D01*
X003930Y013339D01*
X003731Y013257D01*
X003579Y013105D01*
X003497Y012906D01*
X003497Y012691D01*
X003567Y012522D01*
X003567Y012079D01*
X003507Y012079D01*
X003507Y012019D01*
X003567Y012019D01*
X003567Y011550D01*
X003576Y011550D01*
X003654Y011562D01*
X003728Y011587D01*
X003798Y011622D01*
X003862Y011668D01*
X003917Y011724D01*
X003964Y011787D01*
X003999Y011857D01*
X004014Y011901D01*
X004079Y011743D01*
X004231Y011591D01*
X004430Y011509D01*
X004198Y011625D02*
X003802Y011625D01*
X003917Y011723D02*
X004099Y011723D01*
X004047Y011822D02*
X003981Y011822D01*
X003567Y011822D02*
X003507Y011822D01*
X003507Y011920D02*
X003567Y011920D01*
X003567Y012019D02*
X003507Y012019D01*
X003507Y012117D02*
X003567Y012117D01*
X003567Y012216D02*
X003507Y012216D01*
X003507Y012314D02*
X003567Y012314D01*
X003567Y012413D02*
X003507Y012413D01*
X003507Y012511D02*
X003567Y012511D01*
X003531Y012610D02*
X000887Y012610D01*
X000887Y012708D02*
X003497Y012708D01*
X003497Y012807D02*
X000887Y012807D01*
X000887Y012905D02*
X003497Y012905D01*
X003537Y013004D02*
X002623Y013004D01*
X002807Y013102D02*
X003578Y013102D01*
X003675Y013201D02*
X002905Y013201D01*
X002955Y013299D02*
X003834Y013299D01*
X004240Y013299D02*
X005119Y013299D01*
X005079Y013398D02*
X002995Y013398D01*
X003346Y012511D02*
X003276Y012475D01*
X003212Y012429D01*
X003113Y012314D02*
X000887Y012314D01*
X000887Y012216D02*
X003067Y012216D01*
X003507Y011723D02*
X003567Y011723D01*
X003567Y011625D02*
X003507Y011625D01*
X002920Y010827D02*
X003002Y010629D01*
X003002Y010414D01*
X002920Y010215D01*
X002768Y010063D01*
X002570Y009981D01*
X002355Y009981D01*
X002156Y010063D01*
X002004Y010215D01*
X001922Y010414D01*
X001922Y010629D01*
X002004Y010827D01*
X002156Y010979D01*
X002355Y011061D01*
X002570Y011061D01*
X002768Y010979D01*
X002920Y010827D01*
X002911Y010837D02*
X005163Y010837D01*
X005117Y010738D02*
X002957Y010738D01*
X002998Y010640D02*
X005076Y010640D01*
X005072Y010541D02*
X003002Y010541D01*
X003002Y010443D02*
X005072Y010443D01*
X005081Y010344D02*
X002973Y010344D01*
X002932Y010246D02*
X004996Y010246D01*
X004968Y010147D02*
X002852Y010147D01*
X002732Y010049D02*
X004968Y010049D01*
X004968Y009950D02*
X001675Y009950D01*
X001675Y009852D02*
X004968Y009852D01*
X004968Y009753D02*
X001675Y009753D01*
X001675Y009655D02*
X004968Y009655D01*
X004968Y009556D02*
X001675Y009556D01*
X001766Y009458D02*
X004968Y009458D01*
X004968Y009359D02*
X001865Y009359D01*
X001963Y009261D02*
X004968Y009261D01*
X004968Y009162D02*
X002062Y009162D01*
X002160Y009064D02*
X004968Y009064D01*
X004968Y008965D02*
X002259Y008965D01*
X002357Y008867D02*
X004968Y008867D01*
X004968Y008768D02*
X002456Y008768D01*
X002462Y008670D02*
X004968Y008670D01*
X004968Y008571D02*
X002462Y008571D01*
X002462Y008473D02*
X004968Y008473D01*
X004968Y008374D02*
X002462Y008374D01*
X002462Y008276D02*
X004968Y008276D01*
X004968Y008177D02*
X002462Y008177D01*
X002462Y008079D02*
X004968Y008079D01*
X004968Y007980D02*
X002462Y007980D01*
X002462Y007882D02*
X004968Y007882D01*
X004968Y007783D02*
X002462Y007783D01*
X002489Y007685D02*
X004968Y007685D01*
X004968Y007586D02*
X002527Y007586D01*
X002523Y007610D02*
X002523Y007610D01*
X002541Y007488D02*
X004968Y007488D01*
X004968Y007389D02*
X002555Y007389D01*
X002569Y007291D02*
X004968Y007291D01*
X004968Y007192D02*
X002583Y007192D01*
X002582Y007094D02*
X004968Y007094D01*
X004968Y006995D02*
X002568Y006995D01*
X002554Y006897D02*
X004968Y006897D01*
X004968Y006798D02*
X002540Y006798D01*
X002526Y006700D02*
X004968Y006700D01*
X004968Y006601D02*
X002485Y006601D01*
X002462Y006503D02*
X004968Y006503D01*
X004968Y006404D02*
X002462Y006404D01*
X002462Y006306D02*
X004986Y006306D01*
X005057Y006207D02*
X002462Y006207D01*
X002462Y006109D02*
X005155Y006109D01*
X005254Y006010D02*
X002462Y006010D01*
X002368Y005912D02*
X005352Y005912D01*
X005451Y005813D02*
X002270Y005813D01*
X002171Y005715D02*
X005549Y005715D01*
X005612Y005616D02*
X002073Y005616D01*
X001974Y005518D02*
X005706Y005518D01*
X005805Y005419D02*
X004171Y005419D01*
X004104Y005426D02*
X004087Y005426D01*
X004087Y004107D01*
X003987Y004107D01*
X003987Y005426D01*
X003970Y005426D01*
X003836Y005412D01*
X003704Y005386D01*
X003575Y005347D01*
X003451Y005296D01*
X003332Y005232D01*
X003221Y005158D01*
X003117Y005072D01*
X003021Y004977D01*
X002936Y004873D01*
X002861Y004761D01*
X002798Y004643D01*
X002747Y004518D01*
X002708Y004390D01*
X002681Y004258D01*
X002668Y004124D01*
X002668Y004107D01*
X003987Y004107D01*
X003987Y004007D01*
X002668Y004007D01*
X002668Y003989D01*
X002681Y003856D01*
X002708Y003724D01*
X002747Y003595D01*
X002798Y003471D01*
X002861Y003352D01*
X002936Y003240D01*
X003021Y003136D01*
X003117Y003041D01*
X003221Y002956D01*
X003332Y002881D01*
X003451Y002818D01*
X003575Y002766D01*
X003704Y002727D01*
X003836Y002701D01*
X003970Y002688D01*
X003987Y002688D01*
X003987Y004007D01*
X004087Y004007D01*
X004087Y004107D01*
X005406Y004107D01*
X005406Y004124D01*
X005393Y004258D01*
X005366Y004390D01*
X005327Y004518D01*
X005276Y004643D01*
X005213Y004761D01*
X005138Y004873D01*
X005053Y004977D01*
X004957Y005072D01*
X004853Y005158D01*
X004742Y005232D01*
X004623Y005296D01*
X004499Y005347D01*
X004370Y005386D01*
X004238Y005412D01*
X004104Y005426D01*
X004087Y005419D02*
X003987Y005419D01*
X003903Y005419D02*
X001876Y005419D01*
X001777Y005321D02*
X003511Y005321D01*
X003317Y005222D02*
X001679Y005222D01*
X001343Y004463D02*
X001144Y004546D01*
X000930Y004546D01*
X000731Y004463D01*
X000579Y004311D01*
X000497Y004113D01*
X000497Y003898D01*
X000579Y003700D01*
X000731Y003548D01*
X000833Y003506D01*
X000731Y003463D01*
X000579Y003311D01*
X000497Y003113D01*
X000497Y002898D01*
X000579Y002700D01*
X000731Y002548D01*
X000833Y002506D01*
X000731Y002463D01*
X000579Y002311D01*
X000497Y002113D01*
X000497Y001898D01*
X000579Y001700D01*
X000731Y001548D01*
X000890Y001482D01*
X000846Y001468D01*
X000776Y001432D01*
X000712Y001386D01*
X000657Y001330D01*
X000610Y001267D01*
X000575Y001197D01*
X000551Y001122D01*
X000540Y001056D01*
X000987Y001056D01*
X000987Y000956D01*
X001087Y000956D01*
X001087Y001056D01*
X001534Y001056D01*
X001523Y001122D01*
X001499Y001197D01*
X001464Y001267D01*
X001417Y001330D01*
X001362Y001386D01*
X001298Y001432D01*
X001228Y001468D01*
X001184Y001482D01*
X001343Y001548D01*
X001495Y001700D01*
X001577Y001898D01*
X001577Y002113D01*
X001495Y002311D01*
X001343Y002463D01*
X001241Y002506D01*
X001343Y002548D01*
X001495Y002700D01*
X001577Y002898D01*
X001577Y003113D01*
X001495Y003311D01*
X001343Y003463D01*
X001241Y003506D01*
X001343Y003548D01*
X001495Y003700D01*
X001577Y003898D01*
X001577Y004113D01*
X001495Y004311D01*
X001343Y004463D01*
X001372Y004434D02*
X002721Y004434D01*
X002697Y004336D02*
X001471Y004336D01*
X001526Y004237D02*
X002679Y004237D01*
X002670Y004139D02*
X001566Y004139D01*
X001577Y004040D02*
X003987Y004040D01*
X003987Y003942D02*
X004087Y003942D01*
X004087Y004007D02*
X004087Y002688D01*
X004104Y002688D01*
X004238Y002701D01*
X004370Y002727D01*
X004499Y002766D01*
X004623Y002818D01*
X004742Y002881D01*
X004853Y002956D01*
X004957Y003041D01*
X005053Y003136D01*
X005138Y003240D01*
X005213Y003352D01*
X005276Y003471D01*
X005327Y003595D01*
X005366Y003724D01*
X005393Y003856D01*
X005406Y003989D01*
X005406Y004007D01*
X004087Y004007D01*
X004087Y004040D02*
X006497Y004040D01*
X006497Y003942D02*
X005401Y003942D01*
X005390Y003843D02*
X006520Y003843D01*
X006561Y003745D02*
X005371Y003745D01*
X005343Y003646D02*
X006633Y003646D01*
X006732Y003548D02*
X005308Y003548D01*
X005264Y003449D02*
X006717Y003449D01*
X006618Y003351D02*
X005212Y003351D01*
X005146Y003252D02*
X006555Y003252D01*
X006514Y003154D02*
X005067Y003154D01*
X004971Y003055D02*
X006497Y003055D01*
X006497Y002957D02*
X004854Y002957D01*
X004698Y002858D02*
X006514Y002858D01*
X006554Y002760D02*
X004476Y002760D01*
X004087Y002760D02*
X003987Y002760D01*
X003987Y002858D02*
X004087Y002858D01*
X004087Y002957D02*
X003987Y002957D01*
X003987Y003055D02*
X004087Y003055D01*
X004087Y003154D02*
X003987Y003154D01*
X003987Y003252D02*
X004087Y003252D01*
X004087Y003351D02*
X003987Y003351D01*
X003987Y003449D02*
X004087Y003449D01*
X004087Y003548D02*
X003987Y003548D01*
X003987Y003646D02*
X004087Y003646D01*
X004087Y003745D02*
X003987Y003745D01*
X003987Y003843D02*
X004087Y003843D01*
X004087Y004139D02*
X003987Y004139D01*
X003987Y004237D02*
X004087Y004237D01*
X004087Y004336D02*
X003987Y004336D01*
X003987Y004434D02*
X004087Y004434D01*
X004087Y004533D02*
X003987Y004533D01*
X003987Y004631D02*
X004087Y004631D01*
X004087Y004730D02*
X003987Y004730D01*
X003987Y004828D02*
X004087Y004828D01*
X004087Y004927D02*
X003987Y004927D01*
X003987Y005025D02*
X004087Y005025D01*
X004087Y005124D02*
X003987Y005124D01*
X003987Y005222D02*
X004087Y005222D01*
X004087Y005321D02*
X003987Y005321D01*
X004563Y005321D02*
X005903Y005321D01*
X006002Y005222D02*
X004757Y005222D01*
X004895Y005124D02*
X006140Y005124D01*
X006239Y005025D02*
X005005Y005025D01*
X005094Y004927D02*
X006337Y004927D01*
X006436Y004828D02*
X005168Y004828D01*
X005230Y004730D02*
X006567Y004730D01*
X006648Y004631D02*
X005281Y004631D01*
X005322Y004533D02*
X006768Y004533D01*
X006702Y004434D02*
X005353Y004434D01*
X005377Y004336D02*
X006603Y004336D01*
X006548Y004237D02*
X005395Y004237D01*
X005404Y004139D02*
X006508Y004139D01*
X006618Y002661D02*
X001456Y002661D01*
X001520Y002760D02*
X003598Y002760D01*
X003376Y002858D02*
X001560Y002858D01*
X001577Y002957D02*
X003220Y002957D01*
X003103Y003055D02*
X001577Y003055D01*
X001560Y003154D02*
X003007Y003154D01*
X002928Y003252D02*
X001519Y003252D01*
X001456Y003351D02*
X002863Y003351D01*
X002810Y003449D02*
X001357Y003449D01*
X001342Y003548D02*
X002766Y003548D01*
X002731Y003646D02*
X001441Y003646D01*
X001513Y003745D02*
X002703Y003745D01*
X002684Y003843D02*
X001554Y003843D01*
X001577Y003942D02*
X002673Y003942D01*
X002752Y004533D02*
X001176Y004533D01*
X000898Y004533D02*
X000494Y004533D01*
X000494Y004631D02*
X002793Y004631D01*
X002844Y004730D02*
X000494Y004730D01*
X000497Y004828D02*
X002906Y004828D01*
X002980Y004927D02*
X000596Y004927D01*
X000694Y005025D02*
X003069Y005025D01*
X003179Y005124D02*
X000793Y005124D01*
X000702Y004434D02*
X000494Y004434D01*
X000494Y004336D02*
X000603Y004336D01*
X000548Y004237D02*
X000494Y004237D01*
X000494Y004139D02*
X000508Y004139D01*
X000494Y004040D02*
X000497Y004040D01*
X000494Y003942D02*
X000497Y003942D01*
X000494Y003843D02*
X000520Y003843D01*
X000494Y003745D02*
X000561Y003745D01*
X000494Y003646D02*
X000633Y003646D01*
X000732Y003548D02*
X000494Y003548D01*
X000494Y003449D02*
X000717Y003449D01*
X000618Y003351D02*
X000494Y003351D01*
X000494Y003252D02*
X000555Y003252D01*
X000514Y003154D02*
X000494Y003154D01*
X000494Y003055D02*
X000497Y003055D01*
X000494Y002957D02*
X000497Y002957D01*
X000494Y002858D02*
X000514Y002858D01*
X000494Y002760D02*
X000554Y002760D01*
X000494Y002661D02*
X000618Y002661D01*
X000716Y002563D02*
X000494Y002563D01*
X000494Y002464D02*
X000733Y002464D01*
X000633Y002366D02*
X000494Y002366D01*
X000494Y002267D02*
X000561Y002267D01*
X000520Y002169D02*
X000494Y002169D01*
X000494Y002070D02*
X000497Y002070D01*
X000494Y001972D02*
X000497Y001972D01*
X000494Y001873D02*
X000507Y001873D01*
X000494Y001775D02*
X000548Y001775D01*
X000494Y001676D02*
X000603Y001676D01*
X000701Y001578D02*
X000494Y001578D01*
X000494Y001479D02*
X000880Y001479D01*
X000707Y001381D02*
X000494Y001381D01*
X000494Y001282D02*
X000621Y001282D01*
X000570Y001184D02*
X000494Y001184D01*
X000494Y001085D02*
X000545Y001085D01*
X000494Y000987D02*
X000987Y000987D01*
X000987Y000888D02*
X001087Y000888D01*
X001087Y000956D02*
X001087Y000508D01*
X001154Y000519D01*
X001228Y000543D01*
X001298Y000579D01*
X001362Y000625D01*
X001417Y000681D01*
X001464Y000744D01*
X001499Y000814D01*
X001523Y000889D01*
X001534Y000956D01*
X001087Y000956D01*
X001087Y000987D02*
X003354Y000987D01*
X003359Y001022D02*
X003348Y000937D01*
X003987Y000937D01*
X003987Y001577D01*
X003902Y001565D01*
X003815Y001542D01*
X003731Y001507D01*
X003653Y001462D01*
X003581Y001407D01*
X003517Y001343D01*
X003462Y001271D01*
X003417Y001193D01*
X003382Y001110D01*
X003359Y001022D01*
X003376Y001085D02*
X001529Y001085D01*
X001504Y001184D02*
X003413Y001184D01*
X003470Y001282D02*
X001453Y001282D01*
X001367Y001381D02*
X003555Y001381D01*
X003682Y001479D02*
X001194Y001479D01*
X001373Y001578D02*
X006701Y001578D01*
X006769Y001479D02*
X004392Y001479D01*
X004519Y001381D02*
X006648Y001381D01*
X006567Y001282D02*
X004604Y001282D01*
X004661Y001184D02*
X006526Y001184D01*
X006497Y001085D02*
X004698Y001085D01*
X004720Y000987D02*
X006497Y000987D01*
X006501Y000888D02*
X004087Y000888D01*
X004087Y000987D02*
X003987Y000987D01*
X003987Y001085D02*
X004087Y001085D01*
X004087Y001184D02*
X003987Y001184D01*
X003987Y001282D02*
X004087Y001282D01*
X004087Y001381D02*
X003987Y001381D01*
X003987Y001479D02*
X004087Y001479D01*
X003987Y000888D02*
X001523Y000888D01*
X001487Y000790D02*
X003354Y000790D01*
X003376Y000691D02*
X001425Y000691D01*
X001317Y000593D02*
X003413Y000593D01*
X002338Y000494D02*
X000887Y000494D01*
X000987Y000593D02*
X001087Y000593D01*
X001087Y000691D02*
X000987Y000691D01*
X000987Y000790D02*
X001087Y000790D01*
X001471Y001676D02*
X006603Y001676D01*
X006548Y001775D02*
X001526Y001775D01*
X001567Y001873D02*
X006507Y001873D01*
X006497Y001972D02*
X001577Y001972D01*
X001577Y002070D02*
X006497Y002070D01*
X006520Y002169D02*
X001554Y002169D01*
X001513Y002267D02*
X006561Y002267D01*
X006633Y002366D02*
X001441Y002366D01*
X001341Y002464D02*
X006733Y002464D01*
X006716Y002563D02*
X001358Y002563D01*
X000551Y000888D02*
X000494Y000888D01*
X004636Y000546D02*
X004657Y000582D01*
X004637Y000546D02*
X004636Y000546D01*
X004637Y000546D02*
X005557Y000546D01*
X005570Y000555D01*
X005626Y000546D01*
X005682Y000546D01*
X005693Y000534D01*
X005709Y000532D01*
X005736Y000494D01*
X006542Y000790D02*
X004720Y000790D01*
X004698Y000691D02*
X006588Y000691D01*
X005612Y006404D02*
X005567Y006404D01*
X005612Y006503D02*
X005468Y006503D01*
X005468Y006601D02*
X005589Y006601D01*
X005551Y006684D02*
X005551Y006684D01*
X005549Y006700D02*
X005468Y006700D01*
X005468Y006798D02*
X005534Y006798D01*
X005520Y006897D02*
X005468Y006897D01*
X005468Y006995D02*
X005506Y006995D01*
X005492Y007094D02*
X005468Y007094D01*
X005484Y007147D02*
X005484Y007147D01*
X005491Y007192D02*
X005468Y007192D01*
X005468Y007291D02*
X005505Y007291D01*
X005519Y007389D02*
X005468Y007389D01*
X005468Y007488D02*
X005533Y007488D01*
X005547Y007586D02*
X005468Y007586D01*
X005551Y007610D02*
X005551Y007610D01*
X005585Y007685D02*
X005468Y007685D01*
X005468Y007783D02*
X005612Y007783D01*
X005612Y007882D02*
X005468Y007882D01*
X005468Y007980D02*
X005612Y007980D01*
X005612Y008079D02*
X005468Y008079D01*
X005468Y008177D02*
X005612Y008177D01*
X005612Y008276D02*
X005468Y008276D01*
X005468Y008374D02*
X005612Y008374D01*
X005612Y008473D02*
X005468Y008473D01*
X005468Y008571D02*
X005612Y008571D01*
X005612Y008670D02*
X005468Y008670D01*
X005468Y008768D02*
X005618Y008768D01*
X005717Y008867D02*
X005468Y008867D01*
X005468Y008965D02*
X005815Y008965D01*
X005914Y009064D02*
X005468Y009064D01*
X005468Y009162D02*
X006012Y009162D01*
X006111Y009261D02*
X005468Y009261D01*
X005468Y009359D02*
X006209Y009359D01*
X006308Y009458D02*
X005468Y009458D01*
X005468Y009556D02*
X006399Y009556D01*
X006399Y009655D02*
X005468Y009655D01*
X005468Y009753D02*
X006399Y009753D01*
X006399Y009852D02*
X005468Y009852D01*
X005468Y009950D02*
X006399Y009950D01*
X006399Y010049D02*
X005882Y010049D01*
X006001Y010147D02*
X006399Y010147D01*
X006399Y010246D02*
X006082Y010246D01*
X006123Y010344D02*
X006399Y010344D01*
X006399Y010443D02*
X006152Y010443D01*
X006152Y010541D02*
X006399Y010541D01*
X006399Y010640D02*
X006147Y010640D01*
X006107Y010738D02*
X006407Y010738D01*
X006506Y010837D02*
X006060Y010837D01*
X005962Y010935D02*
X006604Y010935D01*
X006703Y011034D02*
X005786Y011034D01*
X005437Y011034D02*
X002637Y011034D01*
X002812Y010935D02*
X005262Y010935D01*
X004975Y011723D02*
X006105Y011723D01*
X006095Y011625D02*
X004876Y011625D01*
X004686Y011526D02*
X006095Y011526D01*
X006146Y011822D02*
X005027Y011822D01*
X005068Y011920D02*
X006206Y011920D01*
X006305Y012019D02*
X005077Y012019D01*
X005077Y012117D02*
X007187Y012117D01*
X007187Y012019D02*
X006895Y012019D01*
X006994Y011920D02*
X007187Y011920D01*
X007187Y011822D02*
X007054Y011822D01*
X007095Y011723D02*
X007187Y011723D01*
X007187Y011625D02*
X007105Y011625D01*
X007105Y011526D02*
X007187Y011526D01*
X007097Y011428D02*
X007075Y011428D01*
X006801Y011132D02*
X006789Y011132D01*
X007187Y012216D02*
X005052Y012216D01*
X005012Y012314D02*
X007187Y012314D01*
X007187Y012413D02*
X004937Y012413D01*
X004832Y012511D02*
X007187Y012511D01*
X007187Y012610D02*
X004543Y012610D01*
X004577Y012708D02*
X007187Y012708D01*
X007187Y012807D02*
X004577Y012807D01*
X004577Y012905D02*
X007187Y012905D01*
X007187Y013004D02*
X005773Y013004D01*
X005956Y013102D02*
X007177Y013102D01*
X007078Y013201D02*
X006055Y013201D01*
X006104Y013299D02*
X006980Y013299D01*
X006881Y013398D02*
X006145Y013398D01*
X005451Y013004D02*
X004537Y013004D01*
X004496Y013102D02*
X005267Y013102D01*
X005169Y013201D02*
X004399Y013201D01*
X002301Y013004D02*
X000887Y013004D01*
X000897Y013102D02*
X002118Y013102D01*
X002019Y013201D02*
X000996Y013201D01*
X001094Y013299D02*
X001970Y013299D01*
X001929Y013398D02*
X001193Y013398D01*
X001265Y011920D02*
X000887Y011920D01*
X000977Y011822D02*
X001193Y011822D01*
X001153Y011723D02*
X001075Y011723D01*
X001675Y011034D02*
X002288Y011034D01*
X002112Y010935D02*
X001675Y010935D01*
X001675Y010837D02*
X002014Y010837D01*
X001968Y010738D02*
X001675Y010738D01*
X001675Y010640D02*
X001927Y010640D01*
X001922Y010541D02*
X001675Y010541D01*
X001675Y010443D02*
X001922Y010443D01*
X001951Y010344D02*
X001675Y010344D01*
X001675Y010246D02*
X001992Y010246D01*
X002073Y010147D02*
X001675Y010147D01*
X001675Y010049D02*
X002192Y010049D01*
D16*
X004037Y000887D03*
D17*
X006612Y005006D02*
X005218Y006399D01*
X005218Y010128D01*
X005612Y010521D01*
X006612Y005006D02*
X007037Y005006D01*
M02*
