G75*
%MOIN*%
%OFA0B0*%
%FSLAX24Y24*%
%IPPOS*%
%LPD*%
%AMOC8*
5,1,8,0,0,1.08239X$1,22.5*
%
%ADD10C,0.0740*%
%ADD11C,0.0669*%
%ADD12C,0.2480*%
%ADD13C,0.1122*%
%ADD14C,0.0320*%
%ADD15C,0.0160*%
%ADD16C,0.0100*%
D10*
X001037Y001006D03*
X001037Y002006D03*
X001037Y003006D03*
X001037Y004006D03*
X002462Y010521D03*
X003537Y012049D03*
X004037Y012799D03*
X004537Y012049D03*
X005612Y013521D03*
X005537Y014667D03*
X005537Y015824D03*
X004537Y015824D03*
X003537Y015824D03*
X002537Y015824D03*
X002537Y014667D03*
X002462Y013521D03*
X001537Y015824D03*
X005612Y010521D03*
X006537Y015824D03*
X007037Y005006D03*
X007037Y004006D03*
X007037Y003006D03*
X007037Y002006D03*
X007037Y001006D03*
D11*
X006600Y011600D03*
X006600Y014600D03*
X001600Y014600D03*
X001600Y011600D03*
D12*
X004037Y004057D03*
D13*
X004037Y000887D03*
D14*
X004761Y002006D02*
X001037Y002006D01*
X004761Y002006D02*
X005612Y002856D01*
X005612Y005612D01*
X005218Y006006D01*
X005218Y008368D01*
X006281Y009529D01*
X006281Y011380D01*
X006600Y011600D01*
X006600Y014600D02*
X005604Y014600D01*
X005537Y014667D01*
X005537Y015824D02*
X006537Y015824D01*
X006537Y014663D01*
X006600Y014600D01*
X001600Y014600D02*
X001537Y014663D01*
X001537Y015824D01*
D15*
X001537Y016104D01*
X002069Y016635D01*
X004037Y016635D01*
X004537Y016135D01*
X004537Y015824D01*
X005612Y013521D02*
X005612Y013124D01*
X004537Y012049D01*
X004537Y007506D01*
X001037Y004006D01*
X002462Y010521D02*
X002462Y011911D01*
X003350Y012799D01*
X004037Y012799D01*
D16*
X002344Y014474D02*
X002537Y014667D01*
X002537Y015824D01*
X002344Y014474D02*
X002344Y013718D01*
X002462Y013521D01*
M02*
