G75*
%MOIN*%
%OFA0B0*%
%FSLAX24Y24*%
%IPPOS*%
%LPD*%
%AMOC8*
5,1,8,0,0,1.08239X$1,22.5*
%
%ADD10C,0.0110*%
%ADD11C,0.0100*%
%ADD12C,0.0080*%
%ADD13C,0.0060*%
D10*
X004376Y009657D02*
X004376Y009755D01*
X004475Y009853D01*
X004967Y009853D01*
X004967Y009558D01*
X004868Y009460D01*
X004672Y009460D01*
X004573Y009558D01*
X004573Y009853D01*
X004573Y010104D02*
X004573Y010301D01*
X004573Y010203D02*
X005164Y010203D01*
X005164Y010104D01*
X004868Y010534D02*
X004967Y010632D01*
X004967Y010829D01*
X004868Y010928D01*
X004770Y010928D01*
X004770Y010534D01*
X004672Y010534D02*
X004868Y010534D01*
X004672Y010534D02*
X004573Y010632D01*
X004573Y010829D01*
X004573Y009209D02*
X004868Y009209D01*
X004967Y009111D01*
X004967Y008815D01*
X004573Y008815D01*
X004672Y008564D02*
X004573Y008466D01*
X004573Y008269D01*
X004672Y008171D01*
X004868Y008171D01*
X004967Y008269D01*
X004967Y008466D01*
X004868Y008564D01*
X004672Y008564D01*
X004573Y007920D02*
X004573Y007625D01*
X004672Y007526D01*
X004868Y007526D01*
X004967Y007625D01*
X004967Y007920D01*
X005164Y007920D02*
X004573Y007920D01*
X004573Y006631D02*
X004573Y006237D01*
X004573Y006434D02*
X005164Y006434D01*
X004967Y006237D01*
X005065Y005986D02*
X004868Y005986D01*
X004770Y005888D01*
X004770Y005593D01*
X004573Y005593D02*
X005164Y005593D01*
X005164Y005888D01*
X005065Y005986D01*
D11*
X003280Y006056D02*
X002719Y006056D01*
X002906Y006056D02*
X002906Y006336D01*
X002999Y006429D01*
X003186Y006429D01*
X003280Y006336D01*
X003280Y006056D01*
X003466Y006663D02*
X003466Y006757D01*
X002906Y006757D01*
X002906Y006850D02*
X002906Y006663D01*
X002999Y007068D02*
X002906Y007162D01*
X002906Y007442D01*
X003186Y007442D01*
X003280Y007349D01*
X003280Y007162D01*
X003093Y007162D02*
X003093Y007442D01*
X003093Y007162D02*
X002999Y007068D01*
X002906Y007676D02*
X003280Y007676D01*
X003280Y007956D01*
X003186Y008050D01*
X002906Y008050D01*
X003186Y008284D02*
X003186Y008657D01*
X003186Y008892D02*
X003280Y008985D01*
X003280Y009265D01*
X003466Y009265D02*
X002906Y009265D01*
X002906Y008985D01*
X002999Y008892D01*
X003186Y008892D01*
X002999Y009499D02*
X002906Y009499D01*
X002906Y009593D01*
X002999Y009593D01*
X002999Y009499D01*
X002906Y009803D02*
X002906Y009990D01*
X002906Y009897D02*
X003280Y009897D01*
X003280Y009803D01*
X003466Y009897D02*
X003560Y009897D01*
X003186Y010208D02*
X003280Y010302D01*
X003280Y010488D01*
X003186Y010582D01*
X002999Y010582D01*
X002906Y010488D01*
X002906Y010302D01*
X002999Y010208D01*
X003186Y010208D01*
D12*
X003781Y008996D02*
X003711Y008926D01*
X003711Y008786D01*
X003781Y008716D01*
X004061Y008996D01*
X003781Y008996D01*
X003781Y008716D02*
X004061Y008716D01*
X004131Y008786D01*
X004131Y008926D01*
X004061Y008996D01*
X003781Y008556D02*
X003711Y008556D01*
X003711Y008486D01*
X003781Y008486D01*
X003781Y008556D01*
X003711Y008306D02*
X003711Y008026D01*
X003711Y008166D02*
X004131Y008166D01*
X003991Y008026D01*
X003851Y007845D02*
X004131Y007845D01*
X004131Y007565D02*
X003851Y007565D01*
X003711Y007705D01*
X003851Y007845D01*
D13*
X005176Y016387D02*
X005176Y016727D01*
X005346Y016727D01*
X005402Y016670D01*
X005402Y016557D01*
X005346Y016500D01*
X005176Y016500D01*
X005544Y016500D02*
X005657Y016614D01*
X005601Y016614D02*
X005771Y016614D01*
X005771Y016500D02*
X005771Y016840D01*
X005601Y016840D01*
X005544Y016784D01*
X005544Y016670D01*
X005601Y016614D01*
X006164Y016621D02*
X006164Y016848D01*
X006164Y016621D02*
X006277Y016508D01*
X006391Y016621D01*
X006391Y016848D01*
X006532Y016848D02*
X006759Y016848D01*
X006759Y016678D01*
X006646Y016735D01*
X006589Y016735D01*
X006532Y016678D01*
X006532Y016565D01*
X006589Y016508D01*
X006702Y016508D01*
X006759Y016565D01*
X004798Y016537D02*
X004742Y016480D01*
X004628Y016480D01*
X004571Y016537D01*
X004571Y016651D01*
X004685Y016651D01*
X004798Y016764D02*
X004742Y016821D01*
X004628Y016821D01*
X004571Y016764D01*
X004430Y016821D02*
X004430Y016480D01*
X004203Y016480D02*
X004430Y016821D01*
X004203Y016821D02*
X004203Y016480D01*
X004062Y016480D02*
X003892Y016480D01*
X003835Y016537D01*
X003835Y016764D01*
X003892Y016821D01*
X004062Y016821D01*
X004062Y016480D01*
X004798Y016537D02*
X004798Y016764D01*
X002861Y016840D02*
X002861Y016500D01*
X002861Y016614D02*
X002691Y016614D01*
X002634Y016670D01*
X002634Y016784D01*
X002691Y016840D01*
X002861Y016840D01*
X002748Y016614D02*
X002634Y016500D01*
X002493Y016500D02*
X002266Y016727D01*
X002493Y016727D02*
X002266Y016500D01*
X001991Y016545D02*
X001935Y016488D01*
X001821Y016488D01*
X001764Y016545D01*
X001764Y016658D01*
X001878Y016658D01*
X001991Y016545D02*
X001991Y016772D01*
X001935Y016829D01*
X001821Y016829D01*
X001764Y016772D01*
X001623Y016829D02*
X001623Y016488D01*
X001396Y016488D02*
X001623Y016829D01*
X001396Y016829D02*
X001396Y016488D01*
X001255Y016488D02*
X001255Y016829D01*
X001084Y016829D01*
X001028Y016772D01*
X001028Y016545D01*
X001084Y016488D01*
X001255Y016488D01*
M02*
