%
M48
M72
T01C0.0320
T02C0.0354
T03C0.0400
T04C0.0433
T05C0.0748
T06C0.1654
%
T01
X3537Y12049
X4037Y12799
X4537Y12049
T02
X5612Y13521
X5537Y14667
X5612Y10521
X2537Y14667
X2462Y13521
X2462Y10521
T03
X1037Y1006
X1037Y2006
X1037Y3006
X1037Y4006
X1537Y15824
X2537Y15824
X3537Y15824
X4537Y15824
X5537Y15824
X6537Y15824
X7037Y5006
X7037Y4006
X7037Y3006
X7037Y2006
X7037Y1006
T04
X6600Y11600
X6600Y14600
X1600Y14600
X1600Y11600
T05
X4037Y887
T06
X4037Y4057
M30
